<svg id="Capa_1" enable-background="new 0 0 512 512" height="512" viewBox="0 0 512 512" width="512" xmlns="http://www.w3.org/2000/svg"><g><path d="m5.91 346 38.17 130.08c6.21 21.15 25.94 35.92 47.98 35.92h327.88c22.04 0 41.77-14.77 47.98-35.92l38.17-130.08z" fill="#b46615"/><path d="m506.09 346-38.17 130.08c-6.21 21.15-25.94 35.92-47.98 35.92h-163.94v-166z" fill="#874208"/><path d="m490.66 414.72c-28.45 28.45-74.57 28.45-103.02 0-3.68-3.68-6.87-7.65-9.6-11.85-2.72 4.2-5.92 8.17-9.6 11.85-28.44 28.45-74.57 28.45-103.02 0-3.6-3.6-6.73-7.48-9.42-11.58-.03-.04-.06-.09-.09-.13-2.71 4.15-5.87 8.07-9.51 11.71-28.45 28.45-74.57 28.45-103.02 0-3.64-3.64-6.8-7.56-9.51-11.71-2.71 4.15-5.87 8.07-9.51 11.71-28.45 28.45-74.57 28.45-103.02 0s-28.45-74.57 0-103.02c17.48-17.48 41.63-24.2 64.26-20.2 21.68-73.62 89.76-127.36 170.4-127.36s148.72 53.74 170.4 127.36c22.63-4 46.78 2.72 64.26 20.2 28.45 28.45 28.45 74.57 0 103.02z" fill="#fdbf00"/><path d="m490.66 414.72c-28.45 28.45-74.57 28.45-103.02 0-3.68-3.68-6.87-7.65-9.6-11.85-2.72 4.2-5.92 8.17-9.6 11.85-28.44 28.45-74.57 28.45-103.02 0-3.6-3.6-6.73-7.48-9.42-11.58v-239c80.64 0 148.72 53.74 170.4 127.36 22.63-4 46.78 2.72 64.26 20.2 28.45 28.45 28.45 74.57 0 103.02z" fill="#ff9f00"/><path d="m187.704 291.333h30v28.667h-30z" fill="#ffd400"/><path d="m294.296 291.333h30v28.667h-30z" fill="#fdbf00"/><path d="m241 242.89h30v28.66h-30z" fill="#ffd400"/><path d="m256 242.89h15v28.66h-15z" fill="#fdbf00"/><path d="m173.521 131.659h-30c0-18.684 8.364-28.762 14.471-36.121 4.872-5.871 7.556-9.104 7.556-16.961s-2.684-11.092-7.556-16.963c-6.107-7.358-14.471-17.437-14.471-36.121h30c0 7.857 2.684 11.092 7.556 16.963 6.107 7.358 14.471 17.437 14.471 36.121s-8.364 28.762-14.471 36.121c-4.872 5.87-7.556 9.104-7.556 16.961z" fill="#fff9e1"/><path d="m282.01 53.08c0 18.69-8.36 28.77-14.47 36.12-4.87 5.88-7.55 9.11-7.55 16.97h-30c0-18.69 8.36-28.77 14.47-36.12 4.87-5.88 7.55-9.11 7.55-16.97 0-7.85-2.68-11.09-7.55-16.96-6.11-7.36-14.47-17.44-14.47-36.12h30c0 7.86 2.68 11.09 7.55 16.96 6.11 7.36 14.47 17.44 14.47 36.12z" fill="#fff9e1"/><g fill="#ffdea8"><path d="m259.99 106.17h-3.99v-106.17h3.99c0 7.86 2.68 11.09 7.55 16.96 6.11 7.36 14.47 17.44 14.47 36.12 0 18.69-8.36 28.77-14.47 36.12-4.87 5.88-7.55 9.11-7.55 16.97z"/><path d="m346.452 131.659h-30c0-18.684 8.363-28.762 14.471-36.12 4.872-5.871 7.556-9.105 7.556-16.962s-2.684-11.092-7.557-16.963c-6.106-7.358-14.47-17.437-14.47-36.121h30c0 7.857 2.684 11.092 7.556 16.963 6.107 7.359 14.471 17.437 14.471 36.121s-8.363 28.762-14.471 36.121c-4.872 5.87-7.556 9.104-7.556 16.961z"/></g></g></svg>